<svg width="20" height="20" viewBox="0 0 20 20" fill="none" xmlns="http://www.w3.org/2000/svg">
<path d="M7.5 1.75C10.6729 1.75 13.25 4.32715 13.25 7.5C13.25 8.77344 12.834 9.9502 12.1318 10.9033L13.1934 11.9648C13.2783 11.9336 13.3672 11.915 13.457 11.915C13.6494 11.915 13.8418 11.9883 13.9873 12.1338L18.0303 16.1768C18.3213 16.4678 18.3213 16.9463 18.0303 17.2373L17.2373 18.0303C16.9463 18.3213 16.4678 18.3213 16.1768 18.0303L12.1338 13.9873C11.9209 13.7744 11.8652 13.4609 11.9648 13.1934L10.9033 12.1318C9.9502 12.834 8.77344 13.25 7.5 13.25C4.32715 13.25 1.75 10.6729 1.75 7.5C1.75 4.32715 4.32715 1.75 7.5 1.75ZM7.5 2.25C4.59766 2.25 2.25 4.59766 2.25 7.5C2.25 10.4023 4.59766 12.75 7.5 12.75C10.4023 12.75 12.75 10.4023 12.75 7.5C12.75 4.59766 10.4023 2.25 7.5 2.25ZM7.5 2.75C7.6377 2.75 7.75 2.8623 7.75 3C7.75 3.1377 7.6377 3.25 7.5 3.25C7.3623 3.25 7.25 3.1377 7.25 3C7.25 2.8623 7.3623 2.75 7.5 2.75ZM8.66309 2.90332C8.66895 2.90332 8.6748 2.90332 8.67969 2.90332C8.69727 2.90527 8.71289 2.90723 8.72949 2.91211C8.86328 2.94824 8.94238 3.08496 8.90625 3.21875C8.87012 3.35156 8.7334 3.43066 8.60059 3.39453C8.4668 3.35938 8.3877 3.22266 8.42285 3.08887C8.45215 2.98047 8.5498 2.9043 8.66309 2.90332ZM6.33691 2.90332C6.44922 2.9043 6.54785 2.98047 6.57715 3.08887C6.6123 3.22266 6.5332 3.35938 6.39941 3.39453C6.2666 3.43066 6.12988 3.35156 6.09375 3.21875C6.05762 3.08496 6.13672 2.94824 6.27051 2.91211C6.29199 2.90625 6.31445 2.90332 6.33691 2.90332ZM9.75586 3.35254C9.79785 3.35352 9.83887 3.36523 9.875 3.38672C9.93262 3.41895 9.97461 3.47363 9.99219 3.53809C10.0088 3.60254 10 3.6709 9.9668 3.72754C9.93359 3.78516 9.87891 3.82715 9.81445 3.84473C9.75098 3.86133 9.68262 3.85254 9.625 3.81934C9.50586 3.75 9.46484 3.59766 9.53418 3.47754C9.5791 3.39844 9.66406 3.35059 9.75586 3.35254ZM5.26172 3.35352C5.34668 3.35742 5.42383 3.4043 5.4668 3.47852C5.53613 3.59766 5.49414 3.75098 5.375 3.82031C5.25586 3.88867 5.10254 3.84766 5.03418 3.72852C5 3.6709 4.99121 3.60254 5.00879 3.53906C5.02539 3.47461 5.06738 3.41992 5.125 3.38672C5.16602 3.3623 5.21387 3.35156 5.26172 3.35352ZM10.6787 4.06738C10.7461 4.06738 10.8115 4.09375 10.8594 4.14062C10.9561 4.23828 10.9561 4.39746 10.8594 4.49512C10.7617 4.5918 10.6025 4.5918 10.5049 4.49512C10.4082 4.39746 10.4082 4.23828 10.5049 4.14062C10.5518 4.09473 10.6133 4.06836 10.6787 4.06738ZM4.31445 4.06738C4.38184 4.06641 4.44727 4.09277 4.49512 4.14062C4.59277 4.23828 4.59277 4.39746 4.49512 4.49512C4.39746 4.5918 4.23926 4.5918 4.1416 4.49512C4.04395 4.39746 4.04395 4.23828 4.1416 4.14062C4.1875 4.09473 4.24902 4.06934 4.31445 4.06738ZM3.60938 5C3.65137 5.00098 3.69238 5.0127 3.72852 5.03418C3.84766 5.10254 3.88867 5.25586 3.82031 5.375C3.75098 5.49414 3.59766 5.53516 3.47852 5.46582C3.35938 5.39746 3.31738 5.24414 3.38672 5.125C3.43262 5.0459 3.51758 4.99805 3.60938 5ZM11.4092 5C11.4932 5.00488 11.5703 5.05176 11.6133 5.125C11.6826 5.24414 11.6416 5.39746 11.5225 5.46582C11.4023 5.53516 11.25 5.49414 11.1807 5.375C11.1113 5.25586 11.1523 5.10254 11.2725 5.03418C11.3135 5.00977 11.3613 4.99805 11.4092 5ZM11.8486 6.08594C11.9619 6.08691 12.0596 6.16211 12.0889 6.27051C12.124 6.4043 12.0449 6.54102 11.9111 6.57715C11.7783 6.61328 11.6416 6.53418 11.6055 6.40039C11.5693 6.2666 11.6484 6.12988 11.7822 6.09375C11.8037 6.08789 11.8262 6.08496 11.8486 6.08594ZM3.15137 6.08594C3.15723 6.08496 3.16309 6.08594 3.16895 6.08594C3.18555 6.08691 3.20215 6.08984 3.21875 6.09375C3.35156 6.12988 3.43066 6.2666 3.39453 6.40039C3.35938 6.53418 3.22266 6.61328 3.08887 6.57715C3.02441 6.56055 2.96973 6.51855 2.93652 6.46094C2.90332 6.40332 2.89453 6.33496 2.91113 6.27051C2.94043 6.16211 3.03809 6.08691 3.15137 6.08594ZM12 7.25C12.1377 7.25 12.25 7.3623 12.25 7.5C12.25 7.6377 12.1377 7.75 12 7.75C11.8623 7.75 11.75 7.6377 11.75 7.5C11.75 7.3623 11.8623 7.25 12 7.25ZM3 7.25C3.1377 7.25 3.25 7.3623 3.25 7.5C3.25 7.6377 3.1377 7.75 3 7.75C2.8623 7.75 2.75 7.6377 2.75 7.5C2.75 7.3623 2.8623 7.25 3 7.25ZM11.8369 8.41504C11.8623 8.41406 11.8877 8.41699 11.9111 8.42285C12.0449 8.45898 12.124 8.5957 12.0889 8.72949C12.0527 8.86328 11.916 8.94238 11.7822 8.90625C11.6484 8.87012 11.5693 8.7334 11.6055 8.60059C11.6338 8.49414 11.7275 8.41895 11.8369 8.41504ZM3.15625 8.41504C3.26855 8.41602 3.36621 8.49219 3.39453 8.60059C3.41211 8.66504 3.40332 8.7334 3.37012 8.79004C3.33691 8.84766 3.28223 8.88965 3.21777 8.90625C3.08398 8.94238 2.94727 8.86328 2.91113 8.73047C2.87598 8.59668 2.95508 8.45996 3.08887 8.42383C3.11035 8.41797 3.13281 8.41504 3.15625 8.41504ZM11.4033 9.5C11.4453 9.50098 11.4854 9.5127 11.5225 9.5332C11.5791 9.56641 11.6211 9.62109 11.6387 9.68555C11.6562 9.74902 11.6475 9.81738 11.6133 9.875C11.5811 9.93262 11.5264 9.97461 11.4619 9.99121C11.3975 10.0088 11.3291 10 11.2725 9.96582C11.1523 9.89746 11.1113 9.74414 11.1807 9.625C11.2266 9.5459 11.3115 9.49805 11.4033 9.5ZM3.61426 9.50098C3.7002 9.50488 3.77734 9.55176 3.82031 9.625C3.85352 9.68262 3.8623 9.75098 3.84473 9.81543C3.82715 9.87988 3.78516 9.93457 3.72754 9.96777C3.6084 10.0361 3.45605 9.99512 3.38672 9.875C3.31738 9.75586 3.3584 9.60352 3.47754 9.53418C3.51953 9.50977 3.56738 9.49902 3.61426 9.50098ZM10.6787 10.4326C10.7461 10.4316 10.8115 10.458 10.8594 10.5049C10.9561 10.6025 10.9561 10.7617 10.8594 10.8594C10.7617 10.9561 10.6025 10.9561 10.5049 10.8594C10.4082 10.7617 10.4082 10.6025 10.5049 10.5049C10.5518 10.459 10.6133 10.4326 10.6787 10.4326ZM4.31445 10.4326C4.38184 10.4307 4.44727 10.457 4.49512 10.5049C4.59277 10.6025 4.59277 10.7617 4.49512 10.8594C4.39746 10.9561 4.23926 10.9561 4.1416 10.8594C4.04395 10.7617 4.04395 10.6025 4.1416 10.5049C4.1875 10.459 4.24902 10.4336 4.31445 10.4326ZM5.25684 11.1475C5.29785 11.1475 5.33887 11.1592 5.375 11.1797C5.49512 11.249 5.53613 11.4023 5.4668 11.5215C5.39746 11.6406 5.24512 11.6826 5.125 11.6133C5.06836 11.5801 5.02637 11.5254 5.00879 11.4609C4.99121 11.3975 5 11.3291 5.03418 11.2715C5.0791 11.1924 5.16504 11.1445 5.25684 11.1475ZM9.76172 11.1475C9.84766 11.1514 9.9248 11.1982 9.9668 11.2725C10.0361 11.3916 9.99512 11.5449 9.875 11.6133C9.81836 11.6475 9.75 11.6562 9.68555 11.6387C9.62109 11.6221 9.56641 11.5801 9.53418 11.5225C9.5 11.4648 9.49121 11.3965 9.50879 11.333C9.52637 11.2686 9.56836 11.2139 9.625 11.1807C9.66699 11.1562 9.71484 11.1455 9.76172 11.1475ZM11.8164 11.2949C11.6533 11.4795 11.4795 11.6533 11.2949 11.8164L12.2695 12.791L12.791 12.2695L11.8164 11.2949ZM8.66699 11.5977C8.7793 11.5986 8.87695 11.6738 8.90625 11.7822C8.94238 11.916 8.86328 12.0527 8.72949 12.0889C8.5957 12.125 8.45898 12.0459 8.42285 11.9121C8.40625 11.8477 8.41504 11.7793 8.44824 11.7217C8.48145 11.665 8.53613 11.623 8.60059 11.6055C8.62207 11.5996 8.64453 11.5967 8.66699 11.5977ZM6.3252 11.5977C6.35059 11.5967 6.37598 11.5986 6.39941 11.6055C6.5332 11.6416 6.6123 11.7783 6.57715 11.9111C6.54102 12.0449 6.4043 12.124 6.27051 12.0889C6.13672 12.0527 6.05762 11.916 6.09375 11.7822C6.12207 11.6768 6.21582 11.6016 6.3252 11.5977ZM7.5 11.75C7.6377 11.75 7.75 11.8623 7.75 12C7.75 12.1377 7.6377 12.25 7.5 12.25C7.3623 12.25 7.25 12.1377 7.25 12C7.25 11.8623 7.3623 11.75 7.5 11.75ZM13.457 12.4131C13.3936 12.4131 13.3311 12.4375 13.2812 12.4873L12.4873 13.2803C12.3877 13.3799 12.3877 13.5342 12.4873 13.6338L16.5303 17.6768C16.6299 17.7764 16.7842 17.7764 16.8838 17.6768L17.6768 16.8838C17.7764 16.7842 17.7764 16.6299 17.6768 16.5303L17.25 16.1035L16.6768 16.6768L16.3232 16.3232L16.8965 15.75L16.5 15.3535L15.9268 15.9268L15.5732 15.5732L16.1465 15L15.75 14.6035L15.1768 15.1768L14.8232 14.8232L15.3965 14.25L15 13.8535L14.4268 14.4268L14.0732 14.0732L14.6465 13.5L14.25 13.1035L13.6768 13.6768L13.3232 13.3232L13.8965 12.75L13.6338 12.4873C13.584 12.4375 13.5205 12.4131 13.457 12.4131Z" fill="white"/>
</svg>
